<svg width="512" height="512" viewBox="0 0 512 512" fill="none" xmlns="http://www.w3.org/2000/svg">
<path fill-rule="evenodd" clip-rule="evenodd" d="M436.544 74.4107C388.629 26.4533 324.928 0.0213333 257.066 0C117.226 0 3.41315 113.792 3.34915 253.696C3.32782 298.411 15.0185 342.059 37.2265 380.544L1.21582 512L135.701 476.715C172.757 496.939 214.485 507.584 256.938 507.605H257.045C396.864 507.605 510.699 393.792 510.763 253.888C510.805 186.112 484.437 122.347 436.544 74.4107ZM257.066 464.747H256.981C219.136 464.747 182.037 454.571 149.653 435.349L141.952 430.784L62.1438 451.712L83.4558 373.888L78.4425 365.909C57.3225 332.331 46.1865 293.525 46.2078 253.696C46.2505 137.429 140.864 42.8373 257.173 42.8373C313.493 42.8373 366.442 64.8107 406.251 104.661C446.059 144.533 467.968 197.504 467.947 253.845C467.883 370.155 373.29 464.747 257.066 464.747ZM372.736 306.816C366.4 303.637 335.232 288.299 329.408 286.187C323.605 284.075 319.381 283.008 315.136 289.344C310.89 295.68 298.773 309.973 295.061 314.219C291.37 318.443 287.658 318.976 281.322 315.797C274.986 312.619 254.549 305.941 230.336 284.331C211.498 267.52 198.762 246.763 195.072 240.405C191.381 234.048 194.688 230.635 197.845 227.477C200.704 224.64 204.181 220.075 207.36 216.363C210.56 212.693 211.605 210.048 213.738 205.803C215.85 201.579 214.805 197.867 213.205 194.688C211.605 191.531 198.933 160.32 193.664 147.627C188.522 135.253 183.296 136.939 179.392 136.747C175.701 136.555 171.477 136.533 167.232 136.533C163.008 136.533 156.138 138.112 150.336 144.469C144.533 150.827 128.149 166.165 128.149 197.355C128.149 228.565 150.869 258.709 154.026 262.933C157.184 267.157 198.72 331.2 262.314 358.656C277.44 365.184 289.258 369.088 298.453 372.011C313.642 376.832 327.467 376.149 338.389 374.528C350.571 372.715 375.893 359.189 381.184 344.384C386.475 329.579 386.475 316.864 384.875 314.24C383.296 311.573 379.072 309.995 372.736 306.816Z" fill="white"/>
</svg>
