<svg width="107" height="107" viewBox="0 0 107 107" fill="none" xmlns="http://www.w3.org/2000/svg">
<g filter="url(#filter0_d_41_276)">
<rect x="18" y="18.5" width="71" height="70" rx="16" fill="#58F6D2" fill-opacity="0.14" shape-rendering="crispEdges"/>
<g clip-path="url(#clip0_41_276)">
<path d="M66.1312 40.7972C62.7808 37.4289 58.3195 35.5835 53.5716 35.5835C43.7891 35.5835 35.8162 43.5564 35.8162 53.3389C35.8162 56.4743 36.6404 59.5202 38.1812 62.2077L35.6729 71.4168L45.0791 68.9443C47.677 70.3597 50.5974 71.1122 53.5716 71.1122C63.3541 71.1122 71.327 63.1393 71.327 53.3568C71.327 48.6089 69.4816 44.1477 66.1312 40.7972ZM53.5716 68.1022C50.9199 68.1022 48.322 67.3856 46.0466 66.0418L45.5091 65.7193L39.9191 67.1885L41.4062 61.7418L41.0479 61.1864C39.5787 58.8393 38.7904 56.116 38.7904 53.3389C38.7904 45.2047 45.4195 38.5756 53.5537 38.5756C57.4953 38.5756 61.2041 40.1164 63.9812 42.9114C66.7762 45.7064 68.2991 49.4152 68.2991 53.3568C68.3349 61.491 61.7058 68.1022 53.5716 68.1022ZM61.6699 57.0656C61.222 56.8506 59.0362 55.7756 58.642 55.6143C58.2299 55.471 57.9433 55.3993 57.6387 55.8293C57.3341 56.2772 56.492 57.2806 56.2412 57.5672C55.9903 57.8718 55.7216 57.9077 55.2737 57.6747C54.8258 57.4597 53.3924 56.976 51.7083 55.471C50.3824 54.2885 49.5045 52.8372 49.2358 52.3893C48.9849 51.9414 49.1999 51.7085 49.4328 51.4756C49.6299 51.2785 49.8808 50.956 50.0958 50.7052C50.3108 50.4543 50.4004 50.2572 50.5437 49.9706C50.687 49.666 50.6153 49.4152 50.5078 49.2002C50.4003 48.9852 49.5045 46.7993 49.1462 45.9035C48.7878 45.0435 48.4116 45.151 48.1429 45.1331C47.8741 45.1331 47.5874 45.1331 47.2828 45.1331C46.9783 45.1331 46.5124 45.2406 46.1004 45.6885C45.7062 46.1364 44.5595 47.2114 44.5595 49.3972C44.5595 51.5831 46.1541 53.6972 46.3691 53.9839C46.5841 54.2885 49.5045 58.7677 53.9478 60.6847C55.0049 61.1506 55.8291 61.4193 56.4741 61.6164C57.5312 61.9568 58.4987 61.9031 59.2691 61.7956C60.1291 61.6702 61.9028 60.7206 62.2612 59.6814C62.6374 58.6422 62.6374 57.7643 62.512 57.5672C62.3866 57.3702 62.1178 57.2806 61.6699 57.0656Z" fill="#36D0AD"/>
</g>
</g>
<defs>
<filter id="filter0_d_41_276" x="0" y="0.5" width="107" height="106" filterUnits="userSpaceOnUse" color-interpolation-filters="sRGB">
<feFlood flood-opacity="0" result="BackgroundImageFix"/>
<feColorMatrix in="SourceAlpha" type="matrix" values="0 0 0 0 0 0 0 0 0 0 0 0 0 0 0 0 0 0 127 0" result="hardAlpha"/>
<feOffset/>
<feGaussianBlur stdDeviation="9"/>
<feComposite in2="hardAlpha" operator="out"/>
<feColorMatrix type="matrix" values="0 0 0 0 0.792157 0 0 0 0 0.964706 0 0 0 0 0.933333 0 0 0 0.2 0"/>
<feBlend mode="normal" in2="BackgroundImageFix" result="effect1_dropShadow_41_276"/>
<feBlend mode="normal" in="SourceGraphic" in2="effect1_dropShadow_41_276" result="shape"/>
</filter>
<clipPath id="clip0_41_276">
<rect width="43" height="43" fill="white" transform="translate(32 32)"/>
</clipPath>
</defs>
</svg>
