<svg id="Capa_1" enable-background="new 0 0 512 512" height="512" viewBox="0 0 512 512" width="512" xmlns="http://www.w3.org/2000/svg"><g><path d="m361 0h-210c-24.813 0-45 20.187-45 45v422c0 24.813 20.187 45 45 45h210c24.813 0 45-20.187 45-45v-422c0-24.813-20.187-45-45-45z" fill="#544698"/><path d="m406 45v422c0 24.81-20.19 45-45 45h-105v-512h105c24.81 0 45 20.19 45 45z" fill="#463b81"/><path d="m376 467c0 8.271-6.729 15-15 15h-210c-8.271 0-15-6.729-15-15v-422c0-8.271 6.729-15 15-15h210c8.271 0 15 6.729 15 15z" fill="#e9f3fb"/><path d="m376 45v422c0 8.27-6.73 15-15 15h-105v-452h105c8.27 0 15 6.73 15 15z" fill="#d6e9f8"/><path d="m332 120.5h-151c-8.284 0-15 6.716-15 15v61c0 8.284 6.716 15 15 15h151c8.284 0 15-6.716 15-15v-61c0-8.284-6.716-15-15-15z" fill="#f964ab"/><path d="m347 135.5v61c0 8.28-6.72 15-15 15h-76v-91h76c8.28 0 15 6.72 15 15z" fill="#e23485"/><path d="m331 241h-149c-8.284 0-15 6.716-15 15v119c0 8.284 6.716 15 15 15h149c8.284 0 15-6.716 15-15v-119c0-8.284-6.716-15-15-15z" fill="#b2d7f3"/><path d="m346 256v119c0 8.28-6.72 15-15 15h-75v-149h75c8.28 0 15 6.72 15 15z" fill="#95c7ee"/><circle cx="256" cy="75.731" fill="#544698" r="15"/><path d="m271 75.73c0 8.29-6.72 15-15 15v-30c8.28 0 15 6.72 15 15z" fill="#463b81"/><path d="m286 422h-60c-8.284 0-15 6.716-15 15s6.716 15 15 15h60c8.284 0 15-6.716 15-15s-6.716-15-15-15z" fill="#544698"/><path d="m301 437c0 8.28-6.72 15-15 15h-30v-30h30c8.28 0 15 6.72 15 15z" fill="#463b81"/></g></svg>