<svg width="17" height="16" viewBox="0 0 17 16" fill="none" xmlns="http://www.w3.org/2000/svg">
<path d="M8.01252 15.1498C7.82919 14.9664 7.73319 14.7331 7.72452 14.4498C7.71652 14.1664 7.80419 13.9331 7.98752 13.7498L12.8875 8.84978H1.71252C1.42919 8.84978 1.19152 8.75378 0.999525 8.56178C0.808191 8.37045 0.712524 8.13311 0.712524 7.84978C0.712524 7.56645 0.808191 7.32878 0.999525 7.13678C1.19152 6.94545 1.42919 6.84978 1.71252 6.84978H12.8875L7.98752 1.94978C7.80419 1.76645 7.71652 1.53311 7.72452 1.24978C7.73319 0.966447 7.82919 0.733113 8.01252 0.54978C8.19586 0.366447 8.42919 0.27478 8.71252 0.27478C8.99586 0.27478 9.22919 0.366447 9.41252 0.54978L16.0125 7.14978C16.1125 7.23311 16.1835 7.33711 16.2255 7.46178C16.2669 7.58711 16.2875 7.71645 16.2875 7.84978C16.2875 7.98311 16.2669 8.10811 16.2255 8.22478C16.1835 8.34145 16.1125 8.44978 16.0125 8.54978L9.41252 15.1498C9.22919 15.3331 8.99586 15.4248 8.71252 15.4248C8.42919 15.4248 8.19586 15.3331 8.01252 15.1498Z" fill="white"/>
</svg>
