<svg width="139" height="71" viewBox="0 0 139 71" fill="none" xmlns="http://www.w3.org/2000/svg">
<path d="M0 16.8498C0 8.01324 7.16344 0.849792 16 0.849792H71V70.8498H16C7.16344 70.8498 0 63.6863 0 54.8498V16.8498Z" fill="#00AEEC" fill-opacity="0.16"/>
<path d="M44.4091 30.8498V40.8498C44.4091 41.541 43.8402 42.0998 43.1364 42.0998C42.4325 42.0998 41.8636 41.541 41.8636 40.8498V30.8498C41.8636 30.1585 42.4325 29.5998 43.1364 29.5998C43.8402 29.5998 44.4091 30.1585 44.4091 30.8498ZM38.0455 20.8498C37.3416 20.8498 36.7727 21.4085 36.7727 22.0998V49.5998C36.7727 50.291 37.3416 50.8498 38.0455 50.8498C38.7493 50.8498 39.3182 50.291 39.3182 49.5998V22.0998C39.3182 21.4085 38.7493 20.8498 38.0455 20.8498ZM48.2273 25.8498C47.5235 25.8498 46.9545 26.4085 46.9545 27.0998V44.5998C46.9545 45.291 47.5235 45.8498 48.2273 45.8498C48.9311 45.8498 49.5 45.291 49.5 44.5998V27.0998C49.5 26.4085 48.9311 25.8498 48.2273 25.8498ZM32.9545 25.8498C32.2507 25.8498 31.6818 26.4085 31.6818 27.0998V44.5998C31.6818 45.291 32.2507 45.8498 32.9545 45.8498C33.6584 45.8498 34.2273 45.291 34.2273 44.5998V27.0998C34.2273 26.4085 33.6584 25.8498 32.9545 25.8498ZM27.8636 29.5998C27.1598 29.5998 26.5909 30.1585 26.5909 30.8498V40.8498C26.5909 41.541 27.1598 42.0998 27.8636 42.0998C28.5675 42.0998 29.1364 41.541 29.1364 40.8498V30.8498C29.1364 30.1585 28.5675 29.5998 27.8636 29.5998ZM22.7727 32.0998C22.0689 32.0998 21.5 32.6585 21.5 33.3498V38.3498C21.5 39.041 22.0689 39.5998 22.7727 39.5998C23.4765 39.5998 24.0455 39.041 24.0455 38.3498V33.3498C24.0455 32.6585 23.4765 32.0998 22.7727 32.0998Z" fill="#00AEEC"/>
<path d="M71 1.34979H123C131.837 1.34979 139 8.51324 139 17.3498V54.3498C139 63.1863 131.837 70.3498 123 70.3498H71V1.34979Z" fill="#00AEEC" fill-opacity="0.16"/>
<path d="M120 32.7278C120 36.5627 118.113 40.1814 114.955 42.4096C113.694 43.2974 112.639 44.6578 111.633 46.6922C111.055 47.8613 110.155 48.8742 109.032 49.6182C107.79 50.4422 106.326 50.8498 104.864 50.8498C103.267 50.8498 101.67 50.3634 100.36 49.3956C99.7592 48.9517 99.2342 48.434 98.7963 47.8551C98.3786 47.3024 98.4922 46.5197 99.0499 46.1045C99.609 45.6906 100.399 45.8032 100.817 46.3559C101.109 46.7435 101.464 47.0911 101.869 47.3912C103.536 48.6203 105.905 48.6816 107.628 47.5387C108.392 47.0311 108.977 46.3759 109.365 45.5906C110.563 43.1673 111.874 41.5093 113.491 40.3702C115.987 38.6121 117.476 35.755 117.476 32.7265C117.476 30.0607 116.324 27.5111 114.316 25.7318C112.279 23.9287 109.656 23.106 106.908 23.4098C104.552 23.6724 102.384 24.8265 100.804 26.6596C100.351 27.1835 99.5547 27.246 99.0247 26.7971C98.4959 26.3482 98.4328 25.5592 98.8859 25.0341C100.882 22.7208 103.632 21.2604 106.626 20.9265C110.052 20.5414 113.457 21.6192 115.998 23.8687C118.541 26.1207 120 29.3504 120 32.7278ZM108.011 28.3514C110.447 28.3514 112.428 30.3145 112.428 32.7278C112.428 33.418 112.992 33.9782 113.69 33.9782C114.388 33.9782 114.952 33.418 114.952 32.7278C114.952 28.9353 111.838 25.8506 108.011 25.8506C104.447 25.8506 101.467 28.4789 101.078 31.9638C101.073 32.0088 101.07 32.0551 101.07 32.1013C101.07 33.7243 102.37 34.6021 103.594 34.6034C104.29 34.6034 104.856 35.1648 104.856 35.8538C104.856 36.5427 104.29 37.1042 103.594 37.1042C102.899 37.1042 102.332 37.6643 102.332 38.3546C102.332 39.0448 102.898 39.605 103.594 39.605C105.682 39.605 107.38 37.9219 107.38 35.8538C107.38 33.7856 105.688 32.1076 103.604 32.1013C103.914 29.9544 105.784 28.3514 108.011 28.3514ZM95.6477 26.8359C95.1504 26.3507 94.3541 26.3557 93.862 26.8459C93.3723 27.3373 93.3774 28.1288 93.8721 28.6152C96.0717 30.7684 97.2832 33.5918 97.2832 36.564C97.2832 39.4824 96.1032 42.2446 93.9629 44.3415C93.467 44.8266 93.4632 45.6181 93.9528 46.1108C94.2002 46.3584 94.5258 46.4822 94.8501 46.4822C95.1706 46.4822 95.4912 46.3621 95.7373 46.1208C98.3622 43.55 99.8071 40.1564 99.8071 36.564C99.8071 32.9178 98.3306 29.463 95.6477 26.8359ZM92.1545 30.2182C91.6611 29.7293 90.8635 29.7293 90.3701 30.2182C89.8766 30.7071 89.8766 31.4974 90.3701 31.9863C92.86 34.4533 92.86 38.4683 90.3701 40.9354C89.8766 41.4243 89.8766 42.2145 90.3701 42.7034C90.6162 42.9473 90.9392 43.0698 91.2623 43.0698C91.5854 43.0698 91.9084 42.9473 92.1545 42.7034C95.6287 39.2611 95.6287 33.6606 92.1545 30.2182Z" fill="#00AEEC"/>
</svg>
