<svg id="Capa_1" enable-background="new 0 0 512 512" height="512" viewBox="0 0 512 512" width="512" xmlns="http://www.w3.org/2000/svg"><g><g><g><path d="m99.6 166 39.4 91-39.4 89h-99.6v-180z" fill="#465a61"/></g><g><g><g><path d="m347 421v-30c74.439 0 135-60.561 135-135s-60.561-135-135-135v-30c90.981 0 165 74.019 165 165s-74.019 165-165 165z" fill="#76e2f8"/></g></g></g><g><path d="m347 361v-30c41.355 0 75-33.645 75-75s-33.645-75-75-75v-30c57.897 0 105 47.103 105 105s-47.103 105-105 105z" fill="#76e2f8"/></g><g><path d="m347 301v-30c8.271 0 15-6.729 15-15s-6.729-15-15-15v-30c24.813 0 45 20.187 45 45s-20.187 45-45 45z" fill="#76e2f8"/></g></g><g><g fill="#3aaaff"><path d="m347 271v30c24.813 0 45-20.187 45-45h-30c0 8.271-6.729 15-15 15z"/><path d="m347 331v30c57.897 0 105-47.103 105-105h-30c0 41.355-33.645 75-75 75z"/><path d="m347 391v30c90.981 0 165-74.019 165-165h-30c0 74.439-60.561 135-135 135z"/></g><path d="m0 256h99.6v90h-99.6z" fill="#3b4a51"/></g><path d="m300 .11v511.78l-200.4-165.89v-180z" fill="#697c86"/><path d="m300 256h-200.4v90l200.4 165.89z" fill="#465a61"/></g></svg>